<svg xmlns="http://www.w3.org/2000/svg" width="512" height="512" viewBox="0 0 512 512" version="1.1"><path d="M 442.166 88.467 C 438.133 90.869, 434.640 93.026, 434.405 93.262 C 434.170 93.497, 437.321 100.622, 441.408 109.095 C 456.972 141.365, 467.008 176.139, 471.611 213.750 L 473.354 228 476.612 228 C 481.247 228, 484.840 229.578, 490 233.878 C 492.475 235.941, 494.959 237.900, 495.521 238.232 C 496.209 238.638, 496.291 235.355, 495.772 228.168 C 492.962 189.207, 482.365 148.731, 465.931 114.181 C 460.983 103.778, 450.250 83.885, 449.675 84.050 C 449.579 84.078, 446.200 86.065, 442.166 88.467 M 221.250 135.689 C 222.213 135.941, 223.787 135.941, 224.750 135.689 C 225.713 135.438, 224.925 135.232, 223 135.232 C 221.075 135.232, 220.287 135.438, 221.250 135.689 M 287.762 135.707 C 289.006 135.946, 290.806 135.937, 291.762 135.687 C 292.718 135.437, 291.700 135.241, 289.500 135.252 C 287.300 135.263, 286.518 135.468, 287.762 135.707 M 238.280 136.736 C 240.909 136.943, 244.959 136.940, 247.280 136.731 C 249.601 136.521, 247.450 136.352, 242.500 136.355 C 237.550 136.358, 235.651 136.530, 238.280 136.736 M 264.250 136.735 C 266.863 136.941, 271.137 136.941, 273.750 136.735 C 276.363 136.529, 274.225 136.360, 269 136.360 C 263.775 136.360, 261.637 136.529, 264.250 136.735 M 378.264 166.718 C 379.784 166.947, 382.034 166.941, 383.264 166.704 C 384.494 166.467, 383.250 166.279, 380.500 166.286 C 377.750 166.294, 376.744 166.488, 378.264 166.718 M 393 170.313 C 393 170.485, 394.462 171.948, 396.250 173.563 L 399.500 176.500 396.563 173.250 C 393.825 170.221, 393 169.540, 393 170.313 M 357.232 189 C 357.232 190.925, 357.438 191.713, 357.689 190.750 C 357.941 189.787, 357.941 188.213, 357.689 187.250 C 357.438 186.287, 357.232 187.075, 357.232 189 M 229 206.500 C 226.571 208.975, 224.809 211, 225.084 211 C 225.359 211, 227.571 208.975, 230 206.500 C 232.429 204.025, 234.191 202, 233.916 202 C 233.641 202, 231.429 204.025, 229 206.500 M 295.946 205.750 L 292.500 209.500 296.250 206.054 C 298.313 204.158, 300 202.471, 300 202.304 C 300 201.540, 299.154 202.260, 295.946 205.750 M 347.500 206 C 349.648 208.200, 351.631 210, 351.906 210 C 352.181 210, 350.648 208.200, 348.500 206 C 346.352 203.800, 344.369 202, 344.094 202 C 343.819 202, 345.352 203.800, 347.500 206 M 173 203.313 C 173 203.485, 174.463 204.948, 176.250 206.563 L 179.500 209.500 176.563 206.250 C 173.825 203.221, 173 202.540, 173 203.313 M 319.750 210.706 C 320.988 210.944, 323.012 210.944, 324.250 210.706 C 325.488 210.467, 324.475 210.272, 322 210.272 C 319.525 210.272, 318.512 210.467, 319.750 210.706 M 149.750 211.706 C 150.988 211.944, 153.012 211.944, 154.250 211.706 C 155.488 211.467, 154.475 211.272, 152 211.272 C 149.525 211.272, 148.512 211.467, 149.750 211.706 M 378.264 211.718 C 379.784 211.947, 382.034 211.941, 383.264 211.704 C 384.494 211.467, 383.250 211.279, 380.500 211.286 C 377.750 211.294, 376.744 211.488, 378.264 211.718 M 241 216.500 C 238.571 218.975, 236.809 221, 237.084 221 C 237.359 221, 239.571 218.975, 242 216.500 C 244.429 214.025, 246.191 212, 245.916 212 C 245.641 212, 243.429 214.025, 241 216.500 M 306.437 217.250 L 303.500 220.500 306.750 217.563 C 309.779 214.825, 310.460 214, 309.687 214 C 309.515 214, 308.052 215.463, 306.437 217.250 M 16.232 226 C 16.232 227.925, 16.438 228.713, 16.689 227.750 C 16.941 226.787, 16.941 225.213, 16.689 224.250 C 16.438 223.287, 16.232 224.075, 16.232 226 M 285.440 254.500 C 285.440 269.900, 285.579 276.060, 285.748 268.189 C 285.917 260.319, 285.917 247.719, 285.747 240.189 C 285.578 232.660, 285.439 239.100, 285.440 254.500 M 343.436 254.500 C 343.436 268.800, 343.577 274.511, 343.748 267.191 C 343.919 259.871, 343.918 248.171, 343.747 241.191 C 343.575 234.211, 343.435 240.200, 343.436 254.500 M 15.349 245 C 15.349 249.675, 15.522 251.588, 15.732 249.250 C 15.943 246.912, 15.943 243.088, 15.732 240.750 C 15.522 238.412, 15.349 240.325, 15.349 245 M 259 248.313 C 259 248.485, 260.462 249.948, 262.250 251.563 L 265.500 254.500 262.563 251.250 C 259.825 248.221, 259 247.540, 259 248.313 M 175.666 251.826 L 172.959 254.653 175.229 256.543 C 177.465 258.404, 177.473 258.404, 175.759 256.512 C 174.094 254.673, 174.134 254.469, 176.696 251.795 C 178.169 250.258, 179.149 249, 178.874 249 C 178.599 249, 177.156 250.272, 175.666 251.826 M 248 259.313 C 248 259.485, 249.463 260.948, 251.250 262.563 L 254.500 265.500 251.563 262.250 C 248.825 259.221, 248 258.540, 248 259.313 M 15 266 C 15 269.483, 15.311 272.023, 15.690 271.643 C 16.399 270.935, 16.157 260.831, 15.414 260.083 C 15.186 259.854, 15 262.517, 15 266 M 496.272 271 C 496.272 273.475, 496.467 274.488, 496.706 273.250 C 496.944 272.012, 496.944 269.988, 496.706 268.750 C 496.467 267.512, 496.272 268.525, 496.272 271 M 272.300 277 C 272.300 280.025, 272.487 281.262, 272.716 279.750 C 272.945 278.238, 272.945 275.762, 272.716 274.250 C 272.487 272.738, 272.300 273.975, 272.300 277 M 213.286 277.500 C 213.294 280.250, 213.488 281.256, 213.718 279.736 C 213.947 278.216, 213.941 275.966, 213.704 274.736 C 213.467 273.506, 213.279 274.750, 213.286 277.500 M 261.453 303.250 L 257.500 307.500 261.750 303.547 C 265.702 299.871, 266.460 299, 265.703 299 C 265.540 299, 263.627 300.913, 261.453 303.250 M 149.250 313.716 C 150.762 313.945, 153.238 313.945, 154.750 313.716 C 156.262 313.487, 155.025 313.300, 152 313.300 C 148.975 313.300, 147.738 313.487, 149.250 313.716 M 233.264 314.718 C 234.784 314.947, 237.034 314.941, 238.264 314.704 C 239.494 314.467, 238.250 314.279, 235.500 314.286 C 232.750 314.294, 231.744 314.488, 233.264 314.718 M 320.264 314.718 C 321.784 314.947, 324.034 314.941, 325.264 314.704 C 326.494 314.467, 325.250 314.279, 322.500 314.286 C 319.750 314.294, 318.744 314.488, 320.264 314.718 M 252.250 330.735 C 254.863 330.941, 259.137 330.941, 261.750 330.735 C 264.363 330.529, 262.225 330.360, 257 330.360 C 251.775 330.360, 249.637 330.529, 252.250 330.735 M 221.250 331.716 C 222.762 331.945, 225.238 331.945, 226.750 331.716 C 228.262 331.487, 227.025 331.300, 224 331.300 C 220.975 331.300, 219.738 331.487, 221.250 331.716 M 285.250 331.716 C 286.762 331.945, 289.238 331.945, 290.750 331.716 C 292.262 331.487, 291.025 331.300, 288 331.300 C 284.975 331.300, 283.738 331.487, 285.250 331.716 M 205.250 332.689 C 206.213 332.941, 207.787 332.941, 208.750 332.689 C 209.713 332.438, 208.925 332.232, 207 332.232 C 205.075 332.232, 204.287 332.438, 205.250 332.689 M 303.250 332.689 C 304.212 332.941, 305.788 332.941, 306.750 332.689 C 307.712 332.438, 306.925 332.232, 305 332.232 C 303.075 332.232, 302.288 332.438, 303.250 332.689 M 342.500 336 L 339.500 336.763 342.191 336.882 C 343.671 336.947, 345.160 336.550, 345.500 336 C 345.840 335.450, 345.979 335.053, 345.809 335.118 C 345.639 335.183, 344.150 335.580, 342.500 336 M 227.762 346.707 C 229.006 346.946, 230.806 346.937, 231.762 346.687 C 232.718 346.437, 231.700 346.241, 229.500 346.252 C 227.300 346.263, 226.518 346.468, 227.762 346.707 M 281.250 346.689 C 282.212 346.941, 283.788 346.941, 284.750 346.689 C 285.712 346.438, 284.925 346.232, 283 346.232 C 281.075 346.232, 280.288 346.438, 281.250 346.689 M 240.728 375.722 C 242.503 375.943, 245.653 375.946, 247.728 375.730 C 249.802 375.513, 248.350 375.333, 244.500 375.328 C 240.650 375.324, 238.952 375.501, 240.728 375.722 M 262.776 375.733 C 265.128 375.945, 268.728 375.942, 270.776 375.727 C 272.824 375.512, 270.900 375.339, 266.500 375.343 C 262.100 375.346, 260.424 375.522, 262.776 375.733" stroke="none" fill="#60b7ff" fill-rule="evenodd"/><path d="M 53.660 69.250 C 38.168 89.874, 19.208 133.287, 10.532 168 C 2.101 201.734, 0.492 216.160, 0.601 257 C 0.652 275.975, 1.125 292.820, 1.651 294.432 C 2.177 296.045, 3.792 298.249, 5.240 299.330 C 9.740 302.690, 12.412 300.606, 24.318 284.446 C 31.908 274.146, 35.541 270, 36.979 270 C 38.416 270, 44.607 277.052, 58.512 294.528 C 69.246 308.018, 79.035 319.512, 80.264 320.070 C 81.494 320.628, 89.680 323.653, 98.456 326.792 L 114.412 332.500 123.956 343.630 C 129.205 349.751, 134.532 355.263, 135.792 355.878 C 137.589 356.754, 141.046 356.448, 151.792 354.462 C 185.459 348.241, 215.797 345.751, 257.500 345.787 C 289.208 345.814, 303.400 346.641, 332.319 350.147 L 350.138 352.307 352.186 350.259 C 353.312 349.132, 364.873 332.976, 377.876 314.355 C 394.194 290.989, 402.150 280.409, 403.555 280.207 C 404.902 280.014, 410.080 283.483, 418.852 290.457 C 426.145 296.256, 432.508 301, 432.991 301 C 436.968 301, 439.621 297.654, 455.974 272.012 C 473.466 244.584, 475.531 241.671, 477.093 242.205 C 477.567 242.367, 482.231 246.100, 487.458 250.500 L 496.961 258.500 496.970 268.500 C 496.998 301.630, 487.925 345.872, 473.795 381.500 C 469.847 391.454, 454.325 422.689, 451.432 426.500 C 449.922 428.489, 449.891 428.487, 445.707 426.093 C 413.109 407.442, 390.676 397.831, 360.116 389.426 C 346.376 385.647, 344.392 385.840, 341.161 391.270 C 339.676 393.766, 339.662 394.311, 341.025 396.770 C 342.146 398.794, 344.084 399.972, 348.518 401.326 C 394.285 415.293, 412.980 423.230, 439.754 440.058 C 452.853 448.291, 454.740 448.153, 461.142 438.500 C 486.406 400.406, 503.547 350.206, 510.662 293.471 C 512.408 279.550, 513.666 228.470, 512.242 229.350 C 511.789 229.630, 510.889 224.378, 510.241 217.680 C 505.374 167.328, 486.382 111.557, 461.142 73.500 C 454.765 63.884, 452.842 63.729, 439.933 71.795 C 434.745 75.036, 427.456 79.376, 423.734 81.439 C 416.884 85.236, 415 87.266, 415 90.845 C 415 93.127, 420.354 98.009, 422.827 97.982 C 423.747 97.972, 428.550 95.657, 433.500 92.837 C 452.095 82.244, 449.706 83.223, 451.408 85.500 C 453.988 88.953, 464.272 108.993, 469.882 121.500 C 483.875 152.695, 494.026 194.144, 496.573 230.486 C 497.365 241.780, 498.076 241.451, 489.242 233.882 C 481.657 227.383, 472.843 226.895, 466.065 232.599 C 464.417 233.986, 456.214 245.893, 447.837 259.060 C 439.460 272.227, 432.345 283, 432.025 283 C 431.706 283, 428.082 280.245, 423.972 276.877 C 412.019 267.082, 409.682 265.769, 404.200 265.769 C 394.490 265.769, 395.881 264.244, 364.652 309.135 L 344.804 337.666 339.652 336.877 C 312.038 332.649, 263.696 330.440, 231.500 331.937 C 198.270 333.482, 182.837 335.053, 155.669 339.658 C 147.512 341.040, 140.727 342.020, 140.592 341.836 C 135.624 335.050, 122.817 321.444, 120.123 320.090 C 118.131 319.088, 109.750 315.917, 101.500 313.044 L 86.500 307.819 67.431 283.675 C 56.665 270.044, 46.960 258.713, 45.141 257.651 C 41.120 255.302, 33.469 255.189, 29.165 257.414 C 27.416 258.319, 23.625 262.213, 20.742 266.067 L 15.500 273.074 15.187 255.287 C 14.443 213.122, 22.259 170.663, 38.110 130.753 C 44.617 114.370, 60.305 84, 62.260 84 C 62.725 84, 67.919 86.782, 73.803 90.183 C 129.150 122.172, 194.174 137.479, 267 135.662 C 301.606 134.799, 330.521 130.720, 360.442 122.481 C 376.879 117.955, 397.707 110.575, 400.063 108.443 C 404.290 104.618, 401.579 96, 396.150 96 C 394.944 96, 385.304 98.889, 374.728 102.420 C 332.898 116.387, 295.339 121.761, 247 120.699 C 219.758 120.100, 202.817 118.370, 180.529 113.912 C 139.519 105.709, 104.142 91.989, 72.150 71.882 C 60.839 64.773, 57.392 64.282, 53.660 69.250 M 373.239 168.281 C 357.158 174.379, 353.512 194.463, 366.428 205.803 C 376.370 214.532, 392.191 211.570, 398.996 199.704 C 403.014 192.698, 403.079 186.294, 399.206 178.880 C 394.320 169.526, 382.585 164.737, 373.239 168.281 M 376.321 182.189 C 372.987 183.800, 371.473 188.313, 373.016 192.038 C 375.202 197.315, 380.695 198.601, 385.365 194.927 C 388.904 192.144, 388.986 186.896, 385.545 183.455 C 382.953 180.862, 379.924 180.447, 376.321 182.189 M 311.324 197.391 C 302.088 200.386, 293.725 208.021, 289.301 217.500 L 286.500 223.500 286.181 251.705 C 285.819 283.695, 286.498 288.614, 292.543 297.746 C 307.803 320.802, 341.885 318.260, 354.250 293.144 L 357.500 286.542 357.500 254.521 L 357.500 222.500 354.581 216.554 C 348.338 203.839, 337.431 196.728, 323.500 196.290 C 318.794 196.141, 313.781 196.595, 311.324 197.391 M 138.500 199.882 C 135.200 201.466, 130.839 204.504, 128.809 206.631 C 124.663 210.977, 120.025 220.172, 120.010 224.076 C 119.990 229.403, 127.941 233.186, 131.116 229.360 C 131.865 228.458, 133.832 224.971, 135.488 221.610 C 139.225 214.029, 143.823 211.041, 151.790 211.016 C 161.335 210.987, 167.692 215.921, 170.020 225.167 C 172.873 236.496, 163.481 247.963, 151.323 247.994 C 148.826 248.001, 145 252.349, 145 255.180 C 145 258.253, 149.472 262, 153.139 262 C 163.978 262, 172.930 274.118, 170.035 284.871 C 167.928 292.695, 159.911 298.956, 152 298.956 C 144.933 298.956, 135.741 292.483, 134.556 286.673 C 132.709 277.609, 132.283 276.554, 129.690 274.618 C 127.122 272.700, 126.701 272.657, 124.204 274.057 C 120.062 276.379, 118.984 279.550, 120.161 285.950 C 122.136 296.689, 128.712 305.098, 138.852 309.852 C 143.517 312.039, 145.893 312.494, 152.500 312.467 C 159.646 312.438, 161.171 312.074, 166.785 309.059 C 174.181 305.087, 178.340 300.668, 181.856 293.046 C 186.900 282.108, 184.594 268.441, 176.064 258.726 L 172.831 255.043 176.396 250.692 C 181.771 244.132, 184.257 237.686, 184.357 230.049 C 184.472 221.157, 181.933 214.254, 176.202 207.880 C 166.381 196.957, 151.270 193.751, 138.500 199.882 M 238.500 199.868 C 236.850 200.891, 232.498 204.859, 228.829 208.685 C 210.523 227.776, 198.043 257.545, 199.190 279.387 C 199.547 286.201, 200.154 288.511, 202.981 293.813 C 209.776 306.562, 220.945 313.290, 235.500 313.403 C 242.458 313.457, 244.367 313.057, 250.151 310.331 C 258.583 306.359, 264.345 300.602, 268.349 292.151 C 271.118 286.307, 271.500 284.466, 271.498 276.976 C 271.497 269.369, 271.145 267.736, 268.224 261.804 C 264.085 253.397, 256.216 245.979, 248.247 242.974 C 241.996 240.617, 231.091 240.094, 225.250 241.872 C 223.463 242.415, 222 242.659, 222 242.412 C 222 242.166, 223.839 238.937, 226.086 235.238 C 231.290 226.672, 239.701 216.378, 244.931 212.175 C 250.034 208.075, 250.588 203.394, 246.365 200.073 C 243.136 197.533, 242.301 197.511, 238.500 199.868 M 314.030 211.113 C 309.628 212.869, 305.033 217.019, 302.741 221.308 C 300.614 225.287, 300.483 226.821, 300.167 251.500 C 299.772 282.381, 300.340 286.244, 306.214 292.617 C 316.587 303.870, 334.605 301.461, 341.353 287.919 L 344 282.607 343.994 255.554 C 343.991 239.762, 343.552 226.928, 342.940 224.723 C 341.575 219.807, 336.550 214.155, 331.509 211.865 C 327.136 209.879, 318.097 209.490, 314.030 211.113 M 0.436 255.500 C 0.436 269.800, 0.577 275.511, 0.748 268.191 C 0.919 260.871, 0.918 249.171, 0.747 242.191 C 0.575 235.211, 0.435 241.200, 0.436 255.500 M 231.500 255.026 C 211.741 257.973, 206.007 284.868, 222.770 295.971 C 238.841 306.616, 260.235 293.326, 257.630 274.317 C 255.872 261.489, 244.492 253.088, 231.500 255.026 M 7.949 317.250 C 6.156 319.145, 5.910 320.290, 6.396 324.500 C 7.825 336.890, 16.493 367.068, 24.181 386.425 C 31.549 404.973, 46.181 432.961, 53.629 442.750 C 57.431 447.747, 60.823 447.237, 72.465 439.920 C 111.182 415.586, 156.922 400.033, 209.500 393.323 C 228.978 390.838, 282.490 390.819, 301.821 393.291 C 315.270 395.011, 318.133 394.748, 320.235 391.600 C 321.681 389.435, 320.961 385.068, 318.750 382.588 C 316.726 380.318, 315.143 379.906, 303 378.483 C 284.050 376.264, 245.918 375.470, 227 376.902 C 169.003 381.290, 117.259 396.469, 73.895 421.815 C 68.076 425.217, 62.868 428, 62.322 428 C 61.092 428, 49.754 407.632, 44.230 395.500 C 35.280 375.843, 28.668 356.387, 23.498 334.500 C 19.486 317.515, 19.500 317.549, 16.398 316.135 C 12.672 314.438, 10.316 314.749, 7.949 317.250" stroke="none" fill="#000000" fill-rule="evenodd"/><path d="M 474.667 243.667 C 474.300 244.033, 473.998 251.796, 473.997 260.917 C 473.989 296.505, 468.174 331.763, 456.583 366.502 C 445.458 399.844, 442.636 401.641, 417.191 391.594 C 372.116 373.797, 324.096 364.667, 268.500 363.323 C 192.531 361.486, 124.711 375.182, 66.846 404.047 C 59.336 407.793, 52.884 410.553, 52.508 410.179 C 51.897 409.572, 58.803 422.078, 61.300 426.099 C 62.162 427.487, 63.495 426.981, 71.396 422.267 C 135.441 384.057, 221.942 367.884, 307 378.216 C 315.190 379.211, 316.879 379.747, 319.250 382.108 C 320.762 383.614, 322 385.703, 322 386.750 C 322 388.360, 323.354 388.893, 330.750 390.198 L 339.500 391.742 342.066 388.710 C 344.458 385.884, 344.968 385.719, 349.566 386.277 C 356.339 387.099, 377.029 393.234, 391.500 398.710 C 406.892 404.535, 426.745 414.021, 439.649 421.717 L 449.798 427.770 456.112 416.645 C 479.984 374.582, 493.328 325.911, 496.455 269.500 L 497.009 259.500 487.119 251.250 C 477.439 243.175, 476.021 242.312, 474.667 243.667 M 235.250 346.689 C 236.213 346.941, 237.787 346.941, 238.750 346.689 C 239.713 346.438, 238.925 346.232, 237 346.232 C 235.075 346.232, 234.287 346.438, 235.250 346.689 M 273.762 346.707 C 275.006 346.946, 276.806 346.937, 277.762 346.687 C 278.718 346.437, 277.700 346.241, 275.500 346.252 C 273.300 346.263, 272.518 346.468, 273.762 346.707" stroke="none" fill="#9be69d" fill-rule="evenodd"/><path d="M 53.660 69.250 C 38.168 89.874, 19.208 133.287, 10.532 168 C 2.101 201.734, 0.492 216.160, 0.601 257 C 0.652 275.975, 1.125 292.820, 1.651 294.432 C 2.177 296.045, 3.792 298.249, 5.240 299.330 C 9.740 302.690, 12.412 300.606, 24.318 284.446 C 31.908 274.146, 35.541 270, 36.979 270 C 38.416 270, 44.607 277.052, 58.512 294.528 C 69.246 308.018, 79.035 319.512, 80.264 320.070 C 81.494 320.628, 89.680 323.653, 98.456 326.792 L 114.412 332.500 123.956 343.630 C 129.205 349.751, 134.532 355.263, 135.792 355.878 C 137.589 356.754, 141.046 356.448, 151.792 354.462 C 185.459 348.241, 215.797 345.751, 257.500 345.787 C 289.208 345.814, 303.400 346.641, 332.319 350.147 L 350.138 352.307 352.186 350.259 C 353.312 349.132, 364.873 332.976, 377.876 314.355 C 394.194 290.989, 402.150 280.409, 403.555 280.207 C 404.902 280.014, 410.080 283.483, 418.852 290.457 C 426.145 296.256, 432.508 301, 432.991 301 C 436.968 301, 439.621 297.654, 455.974 272.012 C 473.466 244.584, 475.531 241.671, 477.093 242.205 C 477.567 242.367, 482.231 246.100, 487.458 250.500 L 496.961 258.500 496.970 268.500 C 496.998 301.630, 487.925 345.872, 473.795 381.500 C 469.847 391.454, 454.325 422.689, 451.432 426.500 C 449.922 428.489, 449.891 428.487, 445.707 426.093 C 413.109 407.442, 390.676 397.831, 360.116 389.426 C 346.376 385.647, 344.392 385.840, 341.161 391.270 C 339.676 393.766, 339.662 394.311, 341.025 396.770 C 342.146 398.794, 344.084 399.972, 348.518 401.326 C 394.285 415.293, 412.980 423.230, 439.754 440.058 C 452.853 448.291, 454.740 448.153, 461.142 438.500 C 486.406 400.406, 503.547 350.206, 510.662 293.471 C 512.408 279.550, 513.666 228.470, 512.242 229.350 C 511.789 229.630, 510.889 224.378, 510.241 217.680 C 505.374 167.328, 486.382 111.557, 461.142 73.500 C 454.765 63.884, 452.842 63.729, 439.933 71.795 C 434.745 75.036, 427.456 79.376, 423.734 81.439 C 416.884 85.236, 415 87.266, 415 90.845 C 415 93.127, 420.354 98.009, 422.827 97.982 C 423.747 97.972, 428.550 95.657, 433.500 92.837 C 452.095 82.244, 449.706 83.223, 451.408 85.500 C 453.988 88.953, 464.272 108.993, 469.882 121.500 C 483.875 152.695, 494.026 194.144, 496.573 230.486 C 497.365 241.780, 498.076 241.451, 489.242 233.882 C 481.657 227.383, 472.843 226.895, 466.065 232.599 C 464.417 233.986, 456.214 245.893, 447.837 259.060 C 439.460 272.227, 432.345 283, 432.025 283 C 431.706 283, 428.082 280.245, 423.972 276.877 C 412.019 267.082, 409.682 265.769, 404.200 265.769 C 394.490 265.769, 395.881 264.244, 364.652 309.135 L 344.804 337.666 339.652 336.877 C 312.038 332.649, 263.696 330.440, 231.500 331.937 C 198.270 333.482, 182.837 335.053, 155.669 339.658 C 147.512 341.040, 140.727 342.020, 140.592 341.836 C 135.624 335.050, 122.817 321.444, 120.123 320.090 C 118.131 319.088, 109.750 315.917, 101.500 313.044 L 86.500 307.819 67.431 283.675 C 56.665 270.044, 46.960 258.713, 45.141 257.651 C 41.120 255.302, 33.469 255.189, 29.165 257.414 C 27.416 258.319, 23.625 262.213, 20.742 266.067 L 15.500 273.074 15.187 255.287 C 14.443 213.122, 22.259 170.663, 38.110 130.753 C 44.617 114.370, 60.305 84, 62.260 84 C 62.725 84, 67.919 86.782, 73.803 90.183 C 129.150 122.172, 194.174 137.479, 267 135.662 C 301.606 134.799, 330.521 130.720, 360.442 122.481 C 376.879 117.955, 397.707 110.575, 400.063 108.443 C 404.290 104.618, 401.579 96, 396.150 96 C 394.944 96, 385.304 98.889, 374.728 102.420 C 332.898 116.387, 295.339 121.761, 247 120.699 C 219.758 120.100, 202.817 118.370, 180.529 113.912 C 139.519 105.709, 104.142 91.989, 72.150 71.882 C 60.839 64.773, 57.392 64.282, 53.660 69.250 M 373.239 168.281 C 357.158 174.379, 353.512 194.463, 366.428 205.803 C 376.370 214.532, 392.191 211.570, 398.996 199.704 C 403.014 192.698, 403.079 186.294, 399.206 178.880 C 394.320 169.526, 382.585 164.737, 373.239 168.281 M 376.321 182.189 C 372.987 183.800, 371.473 188.313, 373.016 192.038 C 375.202 197.315, 380.695 198.601, 385.365 194.927 C 388.904 192.144, 388.986 186.896, 385.545 183.455 C 382.953 180.862, 379.924 180.447, 376.321 182.189 M 311.324 197.391 C 302.088 200.386, 293.725 208.021, 289.301 217.500 L 286.500 223.500 286.181 251.705 C 285.819 283.695, 286.498 288.614, 292.543 297.746 C 307.803 320.802, 341.885 318.260, 354.250 293.144 L 357.500 286.542 357.500 254.521 L 357.500 222.500 354.581 216.554 C 348.338 203.839, 337.431 196.728, 323.500 196.290 C 318.794 196.141, 313.781 196.595, 311.324 197.391 M 138.500 199.882 C 135.200 201.466, 130.839 204.504, 128.809 206.631 C 124.663 210.977, 120.025 220.172, 120.010 224.076 C 119.990 229.403, 127.941 233.186, 131.116 229.360 C 131.865 228.458, 133.832 224.971, 135.488 221.610 C 139.225 214.029, 143.823 211.041, 151.790 211.016 C 161.335 210.987, 167.692 215.921, 170.020 225.167 C 172.873 236.496, 163.481 247.963, 151.323 247.994 C 148.826 248.001, 145 252.349, 145 255.180 C 145 258.253, 149.472 262, 153.139 262 C 163.978 262, 172.930 274.118, 170.035 284.871 C 167.928 292.695, 159.911 298.956, 152 298.956 C 144.933 298.956, 135.741 292.483, 134.556 286.673 C 132.709 277.609, 132.283 276.554, 129.690 274.618 C 127.122 272.700, 126.701 272.657, 124.204 274.057 C 120.062 276.379, 118.984 279.550, 120.161 285.950 C 122.136 296.689, 128.712 305.098, 138.852 309.852 C 143.517 312.039, 145.893 312.494, 152.500 312.467 C 159.646 312.438, 161.171 312.074, 166.785 309.059 C 174.181 305.087, 178.340 300.668, 181.856 293.046 C 186.900 282.108, 184.594 268.441, 176.064 258.726 L 172.831 255.043 176.396 250.692 C 181.771 244.132, 184.257 237.686, 184.357 230.049 C 184.472 221.157, 181.933 214.254, 176.202 207.880 C 166.381 196.957, 151.270 193.751, 138.500 199.882 M 238.500 199.868 C 236.850 200.891, 232.498 204.859, 228.829 208.685 C 210.523 227.776, 198.043 257.545, 199.190 279.387 C 199.547 286.201, 200.154 288.511, 202.981 293.813 C 209.776 306.562, 220.945 313.290, 235.500 313.403 C 242.458 313.457, 244.367 313.057, 250.151 310.331 C 258.583 306.359, 264.345 300.602, 268.349 292.151 C 271.118 286.307, 271.500 284.466, 271.498 276.976 C 271.497 269.369, 271.145 267.736, 268.224 261.804 C 264.085 253.397, 256.216 245.979, 248.247 242.974 C 241.996 240.617, 231.091 240.094, 225.250 241.872 C 223.463 242.415, 222 242.659, 222 242.412 C 222 242.166, 223.839 238.937, 226.086 235.238 C 231.290 226.672, 239.701 216.378, 244.931 212.175 C 250.034 208.075, 250.588 203.394, 246.365 200.073 C 243.136 197.533, 242.301 197.511, 238.500 199.868 M 314.030 211.113 C 309.628 212.869, 305.033 217.019, 302.741 221.308 C 300.614 225.287, 300.483 226.821, 300.167 251.500 C 299.772 282.381, 300.340 286.244, 306.214 292.617 C 316.587 303.870, 334.605 301.461, 341.353 287.919 L 344 282.607 343.994 255.554 C 343.991 239.762, 343.552 226.928, 342.940 224.723 C 341.575 219.807, 336.550 214.155, 331.509 211.865 C 327.136 209.879, 318.097 209.490, 314.030 211.113 M 0.436 255.500 C 0.436 269.800, 0.577 275.511, 0.748 268.191 C 0.919 260.871, 0.918 249.171, 0.747 242.191 C 0.575 235.211, 0.435 241.200, 0.436 255.500 M 231.500 255.026 C 211.741 257.973, 206.007 284.868, 222.770 295.971 C 238.841 306.616, 260.235 293.326, 257.630 274.317 C 255.872 261.489, 244.492 253.088, 231.500 255.026 M 7.949 317.250 C 6.156 319.145, 5.910 320.290, 6.396 324.500 C 7.825 336.890, 16.493 367.068, 24.181 386.425 C 31.549 404.973, 46.181 432.961, 53.629 442.750 C 57.431 447.747, 60.823 447.237, 72.465 439.920 C 111.182 415.586, 156.922 400.033, 209.500 393.323 C 228.978 390.838, 282.490 390.819, 301.821 393.291 C 315.270 395.011, 318.133 394.748, 320.235 391.600 C 321.681 389.435, 320.961 385.068, 318.750 382.588 C 316.726 380.318, 315.143 379.906, 303 378.483 C 284.050 376.264, 245.918 375.470, 227 376.902 C 169.003 381.290, 117.259 396.469, 73.895 421.815 C 68.076 425.217, 62.868 428, 62.322 428 C 61.092 428, 49.754 407.632, 44.230 395.500 C 35.280 375.843, 28.668 356.387, 23.498 334.500 C 19.486 317.515, 19.500 317.549, 16.398 316.135 C 12.672 314.438, 10.316 314.749, 7.949 317.250" stroke="none" fill="#000000" fill-rule="evenodd"/><path d="M 457.024 272.261 C 447.962 286.472, 439.862 298.699, 439.024 299.431 C 436.538 301.604, 433.230 302.193, 430.788 300.896 C 429.529 300.228, 423.041 295.253, 416.368 289.841 C 409.696 284.428, 403.988 280, 403.684 280 C 403.379 280, 391.815 296.200, 377.986 316.001 C 359.029 343.142, 352.228 352.156, 350.351 352.627 C 348.981 352.971, 344.629 352.753, 340.680 352.144 C 283.357 343.296, 204.499 344.901, 148.400 356.056 C 141.256 357.477, 137.573 357.788, 135.815 357.120 C 134.448 356.600, 128.967 351.005, 123.636 344.686 L 113.942 333.198 99.221 328.055 C 91.125 325.227, 82.987 322.374, 81.138 321.715 C 78.488 320.771, 73.543 315.173, 57.770 295.259 C 46.766 281.366, 37.406 270, 36.970 270 C 36.534 270, 31.353 276.562, 25.457 284.581 C 19.561 292.601, 13.646 299.660, 12.312 300.267 C 10.151 301.252, 9.954 301.815, 10.497 305.436 C 11.832 314.330, 11.936 314.559, 14.762 314.792 C 19.327 315.170, 20.714 317.801, 24.022 332.356 C 29.515 356.522, 38.290 381.596, 48.123 401.228 L 52.996 410.956 66.748 404.096 C 124.718 375.179, 192.479 361.485, 268.500 363.323 C 324.096 364.667, 372.116 373.797, 417.191 391.594 C 442.636 401.641, 445.458 399.844, 456.583 366.502 C 468.276 331.459, 474.526 292.983, 473.809 260.461 L 473.500 246.422 457.024 272.261" stroke="none" fill="#c9f6b0" fill-rule="evenodd"/><path d="M 53.660 69.250 C 38.168 89.874, 19.208 133.287, 10.532 168 C 2.101 201.734, 0.492 216.160, 0.601 257 C 0.652 275.975, 1.125 292.820, 1.651 294.432 C 2.177 296.045, 3.792 298.249, 5.240 299.330 C 9.740 302.690, 12.412 300.606, 24.318 284.446 C 31.908 274.146, 35.541 270, 36.979 270 C 38.416 270, 44.607 277.052, 58.512 294.528 C 69.246 308.018, 79.035 319.512, 80.264 320.070 C 81.494 320.628, 89.680 323.653, 98.456 326.792 L 114.412 332.500 123.956 343.630 C 129.205 349.751, 134.532 355.263, 135.792 355.878 C 137.589 356.754, 141.046 356.448, 151.792 354.462 C 185.459 348.241, 215.797 345.751, 257.500 345.787 C 289.208 345.814, 303.400 346.641, 332.319 350.147 L 350.138 352.307 352.186 350.259 C 353.312 349.132, 364.873 332.976, 377.876 314.355 C 394.194 290.989, 402.150 280.409, 403.555 280.207 C 404.902 280.014, 410.080 283.483, 418.852 290.457 C 426.145 296.256, 432.508 301, 432.991 301 C 436.968 301, 439.621 297.654, 455.974 272.012 C 473.466 244.584, 475.531 241.671, 477.093 242.205 C 477.567 242.367, 482.231 246.100, 487.458 250.500 L 496.961 258.500 496.970 268.500 C 496.998 301.630, 487.925 345.872, 473.795 381.500 C 469.847 391.454, 454.325 422.689, 451.432 426.500 C 449.922 428.489, 449.891 428.487, 445.707 426.093 C 413.109 407.442, 390.676 397.831, 360.116 389.426 C 346.376 385.647, 344.392 385.840, 341.161 391.270 C 339.676 393.766, 339.662 394.311, 341.025 396.770 C 342.146 398.794, 344.084 399.972, 348.518 401.326 C 394.285 415.293, 412.980 423.230, 439.754 440.058 C 452.853 448.291, 454.740 448.153, 461.142 438.500 C 486.406 400.406, 503.547 350.206, 510.662 293.471 C 512.408 279.550, 513.666 228.470, 512.242 229.350 C 511.789 229.630, 510.889 224.378, 510.241 217.680 C 505.374 167.328, 486.382 111.557, 461.142 73.500 C 454.765 63.884, 452.842 63.729, 439.933 71.795 C 434.745 75.036, 427.456 79.376, 423.734 81.439 C 416.884 85.236, 415 87.266, 415 90.845 C 415 93.127, 420.354 98.009, 422.827 97.982 C 423.747 97.972, 428.550 95.657, 433.500 92.837 C 452.095 82.244, 449.706 83.223, 451.408 85.500 C 453.988 88.953, 464.272 108.993, 469.882 121.500 C 483.875 152.695, 494.026 194.144, 496.573 230.486 C 497.365 241.780, 498.076 241.451, 489.242 233.882 C 481.657 227.383, 472.843 226.895, 466.065 232.599 C 464.417 233.986, 456.214 245.893, 447.837 259.060 C 439.460 272.227, 432.345 283, 432.025 283 C 431.706 283, 428.082 280.245, 423.972 276.877 C 412.019 267.082, 409.682 265.769, 404.200 265.769 C 394.490 265.769, 395.881 264.244, 364.652 309.135 L 344.804 337.666 339.652 336.877 C 312.038 332.649, 263.696 330.440, 231.500 331.937 C 198.270 333.482, 182.837 335.053, 155.669 339.658 C 147.512 341.040, 140.727 342.020, 140.592 341.836 C 135.624 335.050, 122.817 321.444, 120.123 320.090 C 118.131 319.088, 109.750 315.917, 101.500 313.044 L 86.500 307.819 67.431 283.675 C 56.665 270.044, 46.960 258.713, 45.141 257.651 C 41.120 255.302, 33.469 255.189, 29.165 257.414 C 27.416 258.319, 23.625 262.213, 20.742 266.067 L 15.500 273.074 15.187 255.287 C 14.443 213.122, 22.259 170.663, 38.110 130.753 C 44.617 114.370, 60.305 84, 62.260 84 C 62.725 84, 67.919 86.782, 73.803 90.183 C 129.150 122.172, 194.174 137.479, 267 135.662 C 301.606 134.799, 330.521 130.720, 360.442 122.481 C 376.879 117.955, 397.707 110.575, 400.063 108.443 C 404.290 104.618, 401.579 96, 396.150 96 C 394.944 96, 385.304 98.889, 374.728 102.420 C 332.898 116.387, 295.339 121.761, 247 120.699 C 219.758 120.100, 202.817 118.370, 180.529 113.912 C 139.519 105.709, 104.142 91.989, 72.150 71.882 C 60.839 64.773, 57.392 64.282, 53.660 69.250 M 373.239 168.281 C 357.158 174.379, 353.512 194.463, 366.428 205.803 C 376.370 214.532, 392.191 211.570, 398.996 199.704 C 403.014 192.698, 403.079 186.294, 399.206 178.880 C 394.320 169.526, 382.585 164.737, 373.239 168.281 M 376.321 182.189 C 372.987 183.800, 371.473 188.313, 373.016 192.038 C 375.202 197.315, 380.695 198.601, 385.365 194.927 C 388.904 192.144, 388.986 186.896, 385.545 183.455 C 382.953 180.862, 379.924 180.447, 376.321 182.189 M 311.324 197.391 C 302.088 200.386, 293.725 208.021, 289.301 217.500 L 286.500 223.500 286.181 251.705 C 285.819 283.695, 286.498 288.614, 292.543 297.746 C 307.803 320.802, 341.885 318.260, 354.250 293.144 L 357.500 286.542 357.500 254.521 L 357.500 222.500 354.581 216.554 C 348.338 203.839, 337.431 196.728, 323.500 196.290 C 318.794 196.141, 313.781 196.595, 311.324 197.391 M 138.500 199.882 C 135.200 201.466, 130.839 204.504, 128.809 206.631 C 124.663 210.977, 120.025 220.172, 120.010 224.076 C 119.990 229.403, 127.941 233.186, 131.116 229.360 C 131.865 228.458, 133.832 224.971, 135.488 221.610 C 139.225 214.029, 143.823 211.041, 151.790 211.016 C 161.335 210.987, 167.692 215.921, 170.020 225.167 C 172.873 236.496, 163.481 247.963, 151.323 247.994 C 148.826 248.001, 145 252.349, 145 255.180 C 145 258.253, 149.472 262, 153.139 262 C 163.978 262, 172.930 274.118, 170.035 284.871 C 167.928 292.695, 159.911 298.956, 152 298.956 C 144.933 298.956, 135.741 292.483, 134.556 286.673 C 132.709 277.609, 132.283 276.554, 129.690 274.618 C 127.122 272.700, 126.701 272.657, 124.204 274.057 C 120.062 276.379, 118.984 279.550, 120.161 285.950 C 122.136 296.689, 128.712 305.098, 138.852 309.852 C 143.517 312.039, 145.893 312.494, 152.500 312.467 C 159.646 312.438, 161.171 312.074, 166.785 309.059 C 174.181 305.087, 178.340 300.668, 181.856 293.046 C 186.900 282.108, 184.594 268.441, 176.064 258.726 L 172.831 255.043 176.396 250.692 C 181.771 244.132, 184.257 237.686, 184.357 230.049 C 184.472 221.157, 181.933 214.254, 176.202 207.880 C 166.381 196.957, 151.270 193.751, 138.500 199.882 M 238.500 199.868 C 236.850 200.891, 232.498 204.859, 228.829 208.685 C 210.523 227.776, 198.043 257.545, 199.190 279.387 C 199.547 286.201, 200.154 288.511, 202.981 293.813 C 209.776 306.562, 220.945 313.290, 235.500 313.403 C 242.458 313.457, 244.367 313.057, 250.151 310.331 C 258.583 306.359, 264.345 300.602, 268.349 292.151 C 271.118 286.307, 271.500 284.466, 271.498 276.976 C 271.497 269.369, 271.145 267.736, 268.224 261.804 C 264.085 253.397, 256.216 245.979, 248.247 242.974 C 241.996 240.617, 231.091 240.094, 225.250 241.872 C 223.463 242.415, 222 242.659, 222 242.412 C 222 242.166, 223.839 238.937, 226.086 235.238 C 231.290 226.672, 239.701 216.378, 244.931 212.175 C 250.034 208.075, 250.588 203.394, 246.365 200.073 C 243.136 197.533, 242.301 197.511, 238.500 199.868 M 314.030 211.113 C 309.628 212.869, 305.033 217.019, 302.741 221.308 C 300.614 225.287, 300.483 226.821, 300.167 251.500 C 299.772 282.381, 300.340 286.244, 306.214 292.617 C 316.587 303.870, 334.605 301.461, 341.353 287.919 L 344 282.607 343.994 255.554 C 343.991 239.762, 343.552 226.928, 342.940 224.723 C 341.575 219.807, 336.550 214.155, 331.509 211.865 C 327.136 209.879, 318.097 209.490, 314.030 211.113 M 0.436 255.500 C 0.436 269.800, 0.577 275.511, 0.748 268.191 C 0.919 260.871, 0.918 249.171, 0.747 242.191 C 0.575 235.211, 0.435 241.200, 0.436 255.500 M 231.500 255.026 C 211.741 257.973, 206.007 284.868, 222.770 295.971 C 238.841 306.616, 260.235 293.326, 257.630 274.317 C 255.872 261.489, 244.492 253.088, 231.500 255.026 M 7.949 317.250 C 6.156 319.145, 5.910 320.290, 6.396 324.500 C 7.825 336.890, 16.493 367.068, 24.181 386.425 C 31.549 404.973, 46.181 432.961, 53.629 442.750 C 57.431 447.747, 60.823 447.237, 72.465 439.920 C 111.182 415.586, 156.922 400.033, 209.500 393.323 C 228.978 390.838, 282.490 390.819, 301.821 393.291 C 315.270 395.011, 318.133 394.748, 320.235 391.600 C 321.681 389.435, 320.961 385.068, 318.750 382.588 C 316.726 380.318, 315.143 379.906, 303 378.483 C 284.050 376.264, 245.918 375.470, 227 376.902 C 169.003 381.290, 117.259 396.469, 73.895 421.815 C 68.076 425.217, 62.868 428, 62.322 428 C 61.092 428, 49.754 407.632, 44.230 395.500 C 35.280 375.843, 28.668 356.387, 23.498 334.500 C 19.486 317.515, 19.500 317.549, 16.398 316.135 C 12.672 314.438, 10.316 314.749, 7.949 317.250" stroke="none" fill="#000000" fill-rule="evenodd"/><path d="M 455.500 94 C 456.353 95.650, 457.276 97, 457.551 97 C 457.826 97, 457.353 95.650, 456.500 94 C 455.647 92.350, 454.724 91, 454.449 91 C 454.174 91, 454.647 92.350, 455.500 94 M 227.762 135.707 C 229.006 135.946, 230.806 135.937, 231.762 135.687 C 232.718 135.437, 231.700 135.241, 229.500 135.252 C 227.300 135.263, 226.518 135.468, 227.762 135.707 M 280.762 135.707 C 282.006 135.946, 283.806 135.937, 284.762 135.687 C 285.718 135.437, 284.700 135.241, 282.500 135.252 C 280.300 135.263, 279.518 135.468, 280.762 135.707 M 253.264 136.718 C 254.784 136.947, 257.034 136.941, 258.264 136.704 C 259.494 136.467, 258.250 136.279, 255.500 136.286 C 252.750 136.294, 251.744 136.488, 253.264 136.718 M 398.638 177.500 C 400.950 181.448, 401 181.507, 401 180.277 C 401 179.697, 400.073 178.159, 398.941 176.861 L 396.881 174.500 398.638 177.500 M 402.232 189 C 402.232 190.925, 402.438 191.713, 402.689 190.750 C 402.941 189.787, 402.941 188.213, 402.689 187.250 C 402.438 186.287, 402.232 187.075, 402.232 189 M 320.264 195.718 C 321.784 195.947, 324.034 195.941, 325.264 195.704 C 326.494 195.467, 325.250 195.279, 322.500 195.286 C 319.750 195.294, 318.744 195.488, 320.264 195.718 M 149.250 196.716 C 150.762 196.945, 153.238 196.945, 154.750 196.716 C 156.262 196.487, 155.025 196.300, 152 196.300 C 148.975 196.300, 147.738 196.487, 149.250 196.716 M 398.736 200.256 L 396.971 203.500 398.986 201.139 C 400.700 199.130, 401.616 196.984, 400.750 197.006 C 400.613 197.010, 399.706 198.472, 398.736 200.256 M 229.971 206.750 L 223.500 213.500 230.250 207.029 C 233.963 203.470, 237 200.432, 237 200.279 C 237 199.543, 235.982 200.480, 229.971 206.750 M 174.500 206 C 176.648 208.200, 178.631 210, 178.906 210 C 179.181 210, 177.648 208.200, 175.500 206 C 173.352 203.800, 171.369 202, 171.094 202 C 170.819 202, 172.352 203.800, 174.500 206 M 296.453 206.250 L 292.500 210.500 296.750 206.547 C 299.087 204.373, 301 202.460, 301 202.297 C 301 201.540, 300.129 202.298, 296.453 206.250 M 362 202.313 C 362 202.485, 363.462 203.948, 365.250 205.563 L 368.500 208.500 365.563 205.250 C 362.825 202.221, 362 201.540, 362 202.313 M 127.946 206.750 L 124.500 210.500 128.250 207.054 C 131.740 203.846, 132.460 203, 131.696 203 C 131.529 203, 129.842 204.688, 127.946 206.750 M 240.437 216.250 L 237.500 219.500 240.750 216.563 C 243.779 213.825, 244.460 213, 243.687 213 C 243.515 213, 242.052 214.463, 240.437 216.250 M 336.997 216.502 C 338.921 218.701, 340.888 220.950, 341.370 221.500 C 341.851 222.050, 341.778 221.600, 341.208 220.500 C 340.638 219.400, 338.671 217.151, 336.836 215.502 L 333.500 212.504 336.997 216.502 M 495.232 221 C 495.232 222.925, 495.438 223.713, 495.689 222.750 C 495.941 221.787, 495.941 220.213, 495.689 219.250 C 495.438 218.287, 495.232 219.075, 495.232 221 M 300.438 254.500 C 300.437 269.350, 300.576 275.564, 300.747 268.310 C 300.918 261.055, 300.918 248.905, 300.748 241.310 C 300.578 233.714, 300.438 239.650, 300.438 254.500 M 15.252 233.500 C 15.263 235.700, 15.468 236.482, 15.707 235.238 C 15.946 233.994, 15.937 232.194, 15.687 231.238 C 15.437 230.282, 15.241 231.300, 15.252 233.500 M 495.837 234.587 C 495.636 237.109, 495.736 239.337, 496.059 239.537 C 496.383 239.737, 496.749 237.672, 496.873 234.950 C 497.157 228.717, 496.327 228.426, 495.837 234.587 M 358.432 255 C 358.432 268.475, 358.574 273.988, 358.747 267.250 C 358.920 260.512, 358.920 249.488, 358.747 242.750 C 358.574 236.012, 358.432 241.525, 358.432 255 M 164.437 242.250 L 161.500 245.500 164.750 242.563 C 167.779 239.825, 168.460 239, 167.687 239 C 167.515 239, 166.052 240.463, 164.437 242.250 M 260.500 251 C 262.648 253.200, 264.631 255, 264.906 255 C 265.181 255, 263.648 253.200, 261.500 251 C 259.352 248.800, 257.369 247, 257.094 247 C 256.819 247, 258.352 248.800, 260.500 251 M 218.946 261.750 L 215.500 265.500 219.250 262.054 C 222.740 258.846, 223.460 258, 222.696 258 C 222.529 258, 220.842 259.688, 218.946 261.750 M 198.300 277 C 198.300 280.025, 198.487 281.262, 198.716 279.750 C 198.945 278.238, 198.945 275.762, 198.716 274.250 C 198.487 272.738, 198.300 273.975, 198.300 277 M 257.286 277.500 C 257.294 280.250, 257.488 281.256, 257.718 279.736 C 257.947 278.216, 257.941 275.966, 257.704 274.736 C 257.467 273.506, 257.279 274.750, 257.286 277.500 M 496.252 278.500 C 496.263 280.700, 496.468 281.482, 496.707 280.238 C 496.946 278.994, 496.937 277.194, 496.687 276.238 C 496.437 275.282, 496.241 276.300, 496.252 278.500 M 433.340 280.557 C 433.011 281.414, 432.102 281.869, 431.319 281.569 C 430.531 281.266, 430.169 281.464, 430.507 282.011 C 431.470 283.570, 432.837 283.174, 434 281 C 434.589 279.900, 434.815 279, 434.504 279 C 434.192 279, 433.668 279.701, 433.340 280.557 M 136 290.313 C 136 290.485, 137.463 291.948, 139.250 293.563 L 142.500 296.500 139.563 293.250 C 136.825 290.221, 136 289.540, 136 290.313 M 250.437 293.250 L 247.500 296.500 250.750 293.563 C 252.537 291.948, 254 290.485, 254 290.313 C 254 289.540, 253.175 290.221, 250.437 293.250 M 267.695 293.513 C 266.781 295.431, 266.239 297, 266.490 297 C 267.175 297, 270.210 290.877, 269.753 290.420 C 269.536 290.203, 268.610 291.594, 267.695 293.513 M 232.750 299.706 C 233.988 299.944, 236.012 299.944, 237.250 299.706 C 238.488 299.467, 237.475 299.272, 235 299.272 C 232.525 299.272, 231.512 299.467, 232.750 299.706 M 319.750 299.706 C 320.988 299.944, 323.012 299.944, 324.250 299.706 C 325.488 299.467, 324.475 299.272, 322 299.272 C 319.525 299.272, 318.512 299.467, 319.750 299.706 M 206 300.313 C 206 300.485, 207.463 301.948, 209.250 303.563 L 212.500 306.500 209.563 303.250 C 206.825 300.221, 206 299.540, 206 300.313 M 346.946 303.750 L 343.500 307.500 347.250 304.054 C 349.313 302.158, 351 300.471, 351 300.304 C 351 299.540, 350.154 300.260, 346.946 303.750 M 76.718 318.021 C 78.488 319.878, 80.105 321.196, 80.312 320.949 C 80.519 320.702, 79.071 319.183, 77.094 317.573 L 73.500 314.645 76.718 318.021 M 231.728 331.722 C 233.503 331.943, 236.653 331.946, 238.728 331.730 C 240.802 331.513, 239.350 331.333, 235.500 331.328 C 231.650 331.324, 229.952 331.501, 231.728 331.722 M 272.250 331.728 C 274.313 331.944, 277.688 331.944, 279.750 331.728 C 281.813 331.513, 280.125 331.336, 276 331.336 C 271.875 331.336, 270.188 331.513, 272.250 331.728 M 211.750 332.706 C 212.988 332.944, 215.012 332.944, 216.250 332.706 C 217.488 332.467, 216.475 332.272, 214 332.272 C 211.525 332.272, 210.512 332.467, 211.750 332.706 M 295.750 332.706 C 296.988 332.944, 299.012 332.944, 300.250 332.706 C 301.488 332.467, 300.475 332.272, 298 332.272 C 295.525 332.272, 294.512 332.467, 295.750 332.706 M 199.250 333.689 C 200.213 333.941, 201.787 333.941, 202.750 333.689 C 203.713 333.438, 202.925 333.232, 201 333.232 C 199.075 333.232, 198.287 333.438, 199.250 333.689 M 252.250 345.735 C 254.863 345.941, 259.137 345.941, 261.750 345.735 C 264.363 345.529, 262.225 345.360, 257 345.360 C 251.775 345.360, 249.637 345.529, 252.250 345.735 M 220.762 346.707 C 222.006 346.946, 223.806 346.937, 224.762 346.687 C 225.718 346.437, 224.700 346.241, 222.500 346.252 C 220.300 346.263, 219.518 346.468, 220.762 346.707 M 287.750 346.706 C 288.988 346.944, 291.012 346.944, 292.250 346.706 C 293.488 346.467, 292.475 346.272, 290 346.272 C 287.525 346.272, 286.512 346.467, 287.750 346.706 M 252.750 375.706 C 253.988 375.944, 256.012 375.944, 257.250 375.706 C 258.488 375.467, 257.475 375.272, 255 375.272 C 252.525 375.272, 251.512 375.467, 252.750 375.706 M 227.762 376.707 C 229.006 376.946, 230.806 376.937, 231.762 376.687 C 232.718 376.437, 231.700 376.241, 229.500 376.252 C 227.300 376.263, 226.518 376.468, 227.762 376.707 M 280.264 376.718 C 281.784 376.947, 284.034 376.941, 285.264 376.704 C 286.494 376.467, 285.250 376.279, 282.500 376.286 C 279.750 376.294, 278.744 376.488, 280.264 376.718 M 47 401.383 C 47 402.456, 49.975 408, 50.551 408 C 50.826 408, 50.308 406.538, 49.399 404.750 C 47.542 401.100, 47 400.339, 47 401.383" stroke="none" fill="#040505" fill-rule="evenodd"/><path d="M 58.163 91.750 C 42.374 118.906, 29.269 153.461, 22.568 185.611 C 17.938 207.825, 14.390 249.685, 15.903 264.250 L 16.500 270 20.762 264.478 C 26.450 257.108, 30.071 255.008, 37.102 255.004 C 41.248 255.001, 43.588 255.586, 46.102 257.254 C 47.971 258.494, 57.928 270.058, 68.229 282.953 C 78.530 295.847, 87.593 306.752, 88.368 307.186 C 89.144 307.620, 96.822 310.443, 105.431 313.460 C 114.039 316.477, 121.896 319.520, 122.890 320.222 C 123.884 320.925, 127.962 325.325, 131.951 330 C 135.941 334.675, 139.757 339.082, 140.431 339.793 C 141.432 340.849, 143.704 340.718, 152.798 339.080 C 201.618 330.289, 267.581 328.090, 318.500 333.555 C 326.200 334.381, 335.200 335.321, 338.500 335.645 L 344.500 336.232 366.769 304.366 C 379.017 286.840, 389.600 271.769, 390.287 270.877 C 393.031 267.309, 398.408 265.007, 404 265.007 C 410.436 265.007, 412.667 266.185, 424.007 275.567 L 431.885 282.084 435.259 276.792 C 464.786 230.488, 464.855 230.394, 470.750 228.564 C 473.434 227.730, 473.439 227.605, 471.416 211.842 C 466.719 175.238, 456.621 140.638, 441.464 109.210 L 434.090 93.921 429.078 96.460 C 422.894 99.594, 421.876 99.608, 418.311 96.608 L 415.469 94.217 409.234 97.047 C 403.431 99.681, 402.998 100.105, 402.968 103.188 C 402.908 109.435, 400.763 110.705, 377.443 118.310 C 352.959 126.295, 330.481 131.164, 302 134.652 C 281.560 137.155, 231.463 137.181, 211 134.699 C 156.526 128.091, 110.930 113.435, 70.521 89.544 C 66.294 87.045, 62.667 85, 62.461 85 C 62.256 85, 60.322 88.037, 58.163 91.750 M 372.885 167.380 C 364.813 170.264, 360.147 175.537, 357.957 184.250 C 353.897 200.398, 370.076 215.599, 386.444 211.016 C 392.106 209.430, 398.730 203.805, 401.114 198.556 C 409.261 180.619, 391.311 160.795, 372.885 167.380 M 375.455 184.455 C 374.105 185.805, 373 187.850, 373 189 C 373 191.890, 377.377 196, 380.455 196 C 383.890 196, 387 192.674, 387 189 C 387 182.614, 380.036 179.873, 375.455 184.455 M 310.870 196.517 C 304.235 198.629, 297.140 203.723, 292.788 209.500 C 285.972 218.547, 285.656 220.281, 285.229 251 C 284.722 287.408, 285.748 292.471, 295.823 303.242 C 315.176 323.931, 349.574 315.297, 357.486 287.764 C 358.888 282.884, 359.087 277.582, 358.817 252.239 L 358.500 222.450 355.250 215.853 C 348.965 203.093, 337.596 195.731, 323.500 195.292 C 318.543 195.138, 313.739 195.604, 310.870 196.517 M 140.763 197.514 C 131.675 200.852, 124.271 208.148, 120.859 217.129 C 118.375 223.666, 118.516 226.607, 121.455 229.545 C 126.188 234.279, 133.127 231.954, 134.998 225.009 C 136.234 220.417, 140.074 215.530, 144.069 213.464 C 145.627 212.659, 149.195 212, 152 212 C 154.805 212, 158.373 212.659, 159.931 213.464 C 166.349 216.783, 170.742 225.195, 169.515 231.815 C 167.988 240.055, 162.115 245.474, 153.420 246.666 C 147.791 247.438, 144 250.603, 144 254.531 C 144 258.266, 149.006 263, 152.955 263 C 160.227 263, 166.985 268.518, 169.035 276.129 C 171.895 286.752, 163.232 297.907, 152.066 297.978 C 150.177 297.990, 146.693 297.061, 144.323 295.914 C 137.965 292.837, 136.379 290.149, 133.565 277.687 C 132.336 272.244, 123.434 270.882, 120.305 275.658 C 118.148 278.949, 119.015 289.150, 121.938 294.879 C 125.257 301.384, 131.551 307.635, 137.857 310.689 C 145.374 314.328, 157.918 314.602, 165.217 311.285 C 177.256 305.815, 185.382 293.345, 185.276 280.504 C 185.206 272.039, 183.244 266.330, 178.036 259.431 L 174.116 254.240 176.427 252.069 C 180.125 248.594, 184.031 240.506, 185.022 234.268 C 187.476 218.834, 178.599 203.455, 164.045 197.925 C 158.034 195.641, 146.420 195.436, 140.763 197.514 M 239.224 198.019 C 235.580 199.517, 222.966 212.820, 217.175 221.273 C 210.589 230.884, 204.979 242.712, 201.413 254.505 C 199.145 262.005, 198.677 265.495, 198.596 275.500 C 198.506 286.738, 198.679 287.865, 201.318 293.239 C 206.868 304.541, 216.987 311.975, 229.816 314.175 C 242.175 316.294, 255.042 311.439, 263.982 301.283 C 269.630 294.866, 272.308 287.314, 272.414 277.500 C 272.592 260.952, 263.591 247.759, 248.153 241.941 C 243.489 240.183, 240.896 239.878, 233.326 240.198 C 224.351 240.577, 224.175 240.541, 225.219 238.543 C 228.308 232.629, 236.744 221.685, 242.961 215.527 C 248.729 209.813, 250 207.982, 250 205.388 C 250 199.647, 244.468 195.864, 239.224 198.019 M 312.900 212.936 C 308.042 215.578, 303.336 221.129, 302.060 225.723 C 301.451 227.915, 301.013 240.411, 301.015 255.500 C 301.019 280.789, 301.085 281.640, 303.402 286.617 C 310.827 302.562, 332.768 302.801, 340.750 287.024 C 342.922 282.731, 343 281.614, 343 254.984 L 343 227.393 340.377 222.129 C 336.697 214.745, 331.760 211.638, 323.111 211.264 C 318.045 211.045, 315.658 211.436, 312.900 212.936 M 230.123 255.980 C 213.328 260.053, 208.194 282.772, 221.577 293.803 C 232.250 302.601, 248.209 299.249, 254.353 286.919 C 258.482 278.633, 257.536 269.958, 251.790 263.414 C 246.364 257.233, 237.499 254.192, 230.123 255.980" stroke="none" fill="#99d4e2" fill-rule="evenodd"/></svg>